<?xml version="1.0" encoding="utf-8"?>
<!-- Generator: Adobe Illustrator 21.0.2, SVG Export Plug-In . SVG Version: 6.00 Build 0)  -->
<svg version="1.1" id="Layer_1" xmlns="http://www.w3.org/2000/svg" xmlns:xlink="http://www.w3.org/1999/xlink" x="0px" y="0px"
	 viewBox="0 0 144 144" style="enable-background:new 0 0 144 144;" xml:space="preserve">
<style type="text/css">
	.st0{fill:#1D7FEE;}
	.st1{fill:#FFFFFF;}
</style>
<rect class="st0" width="144" height="144"/>
<circle class="st1" cx="72" cy="72" r="65"/>
<g>
	<path class="st0" d="M80.2,47.7c-0.7,0.8-1.4,1.5-2.1,2.3c-0.7,0.7-1.4,1.4-2.1,2c-0.6,0.5-1.1,1-1.6,1.3c-0.4,0.3-0.9,0.6-1.2,0.7
		c0.1,0.4,0.4,1,0.6,1.8c0.3,0.8,0.5,1.5,0.6,1.9h22.3c3.3,0,5.6,0.4,6.9,1.2c1.3,0.8,1.8,2.4,1.4,4.8c-0.2,1-0.5,2.3-1,3.7
		c-0.5,1.4-1.2,3-2.2,4.8c-0.8,1.4-1.5,2.2-2.3,2.5c-0.7,0.3-1.6,0.2-2.6-0.2c-0.9-0.4-1.3-0.9-1.4-1.5c-0.1-0.6,0.2-1.5,0.9-2.7
		c0.8-1.5,1.4-2.7,1.8-3.5c0.4-0.8,0.6-1.5,0.7-2.1c0.1-0.6,0-0.9-0.4-1.1c-0.3-0.2-1.1-0.2-2.3-0.2H43.5c-0.6,0-1.1,0.1-1.3,0.4
		c-0.3,0.3-0.5,0.8-0.6,1.6l-1.1,7c-0.2,1-0.6,1.8-1.2,2.2c-0.6,0.4-1.4,0.7-2.3,0.7c-2,0-2.9-1-2.6-2.9l1.2-7.6
		c0.4-2.4,1.2-4.2,2.5-5.4c1.3-1.1,3.2-1.7,5.7-1.7h23.9c-0.1,0-0.2-0.2-0.3-0.7c-0.2-0.4-0.2-0.7-0.2-0.7c-1.3-2.2-1-3.8,0.9-4.9
		c0.9-0.5,1.6-0.7,2.2-0.7c0.3-0.7,0.9-1.4,1.9-2.1c1.5-1.3,3-2.7,4.4-4.3c1.4-1.6,2.8-3.5,4.2-5.7c0.9-1.4,1.7-2.2,2.4-2.5
		c0.7-0.3,1.5-0.2,2.3,0.2c0.8,0.4,1.3,1,1.3,1.7c0.1,0.7-0.3,1.7-1.1,2.9c-0.2,0.3-0.4,0.5-0.5,0.8c-0.2,0.3-0.4,0.5-0.5,0.8h22.7
		c1,0,1.7,0.2,2.1,0.6c0.4,0.4,0.5,1.1,0.3,2c-0.1,0.8-0.5,1.5-1,2c-0.5,0.5-1.3,0.7-2.3,0.7H80.2z M53.5,40.4
		c-0.3,0.4-0.5,0.7-0.7,1c-0.2,0.3-0.5,0.6-0.7,0.9h19.2c1,0,1.7,0.2,2.1,0.6c0.4,0.4,0.5,1.1,0.3,2c-0.1,0.8-0.5,1.5-1,2
		c-0.5,0.5-1.3,0.7-2.3,0.7H47.7c-1.1,1.3-2.3,2.5-3.5,3.7c-1.2,1.2-2.5,2.4-3.8,3.6c-1.3,1.2-2.4,1.8-3.2,2
		C36.3,57,35.6,56.7,35,56c-0.6-0.7-0.7-1.5-0.4-2.3c0.4-0.8,1.1-1.6,2.1-2.5c2-1.6,4-3.6,6-5.8s4-4.7,5.9-7.4
		c0.9-1.2,1.7-2,2.5-2.3c0.7-0.3,1.5-0.2,2.4,0.3c0.8,0.4,1.2,0.9,1.2,1.6C54.9,38.2,54.5,39.1,53.5,40.4z M92.7,102
		c-0.3,2.2-1.1,3.8-2.2,4.8c-1.1,1-2.9,1.6-5.3,1.6H43.4c-2.5,0-4.1-0.5-4.9-1.6c-0.8-1-1-2.7-0.7-4.8l4.5-28.7
		c0.4-2.3,1.1-3.9,2.2-4.9c1.1-1,2.9-1.4,5.4-1.4h37.5c2.5,0,4.1,0.5,4.9,1.4c0.8,1,1,2.6,0.7,4.9l-0.8,4.9
		c-0.4,2.3-1.1,3.9-2.2,4.9c-1.1,1-2.9,1.4-5.4,1.4H46.8l-0.6,3.9h42.1c2.4,0,4,0.5,4.9,1.4c0.8,1,1,2.6,0.7,4.9L92.7,102z M87.8,95
		c0.1-0.6,0.1-0.9,0-1c-0.1-0.1-0.4-0.2-0.8-0.2H45.3l-1.3,8c-0.1,0.5,0,0.8,0.1,0.9c0.1,0.2,0.3,0.2,0.6,0.2h40.7
		c0.5,0,0.8-0.1,0.9-0.2c0.1-0.2,0.2-0.5,0.3-0.9L87.8,95z M86.9,73.6c0.1-0.5,0.1-0.8,0-0.9c-0.1-0.2-0.4-0.2-0.8-0.2H49.6
		c-0.3,0-0.5,0.1-0.7,0.2c-0.2,0.2-0.3,0.5-0.4,0.9l-0.9,5.5h37.4c0.4,0,0.6-0.1,0.8-0.2c0.2-0.2,0.3-0.5,0.4-1L86.9,73.6z
		 M59.7,56.6c1.6-1.1,1.8-2.3,0.8-3.6c-0.9-1.1-2.1-2.3-3.5-3.5c-0.5-0.5-1.2-0.7-1.8-0.7c-0.7,0-1.3,0.3-1.8,0.8
		c-0.7,0.6-1.1,1.2-1.1,1.9s0.3,1.2,1,1.6c0.3,0.3,0.6,0.6,1.1,0.9c0.4,0.4,0.9,0.9,1.4,1.6c0.5,0.7,1,1.2,1.8,1.4
		C58.3,57.3,59,57.2,59.7,56.6z M93.9,56.9c0.9-0.6,1.3-1.1,1.4-1.7c0.1-0.6-0.1-1.2-0.5-2c-0.4-0.6-0.9-1.2-1.4-1.8
		c-0.5-0.6-1.2-1.2-1.9-2c-0.5-0.5-1.2-0.7-1.9-0.8c-0.7-0.1-1.3,0.2-1.9,0.7c-0.7,0.6-1,1.3-1,1.9c0,0.7,0.3,1.2,1,1.7
		c0.3,0.3,0.6,0.6,1.1,1.1c0.5,0.4,1,1,1.5,1.8c0.5,0.7,1,1.2,1.6,1.5C92.4,57.5,93.1,57.4,93.9,56.9z"/>
</g>
</svg>
